<svg width="159" height="91" viewBox="0 0 159 91" fill="none" xmlns="http://www.w3.org/2000/svg">
<path d="M47.7833 41.8664C47.3616 41.6809 46.9737 41.4279 46.6532 41.1074C46.3327 40.7869 46.0629 40.399 45.8773 39.9605C45.6918 39.5388 45.6075 39.0665 45.6075 38.5774C45.6075 39.0665 45.5063 39.5388 45.3207 39.9605C45.1352 40.399 44.8822 40.7869 44.5617 41.1074C44.2413 41.4279 43.8533 41.6809 43.4148 41.8664C42.9931 42.0519 42.5209 42.1531 42.0317 42.1531C42.5209 42.1531 42.9931 42.2375 43.4148 42.423C43.8533 42.6085 44.2413 42.8784 44.5617 43.1989C44.8822 43.5193 45.1352 43.9073 45.3207 44.3289C45.5063 44.7506 45.6075 45.2229 45.6075 45.712C45.6075 45.2229 45.6918 44.7506 45.8773 44.3289C46.0629 43.9073 46.3327 43.5193 46.6532 43.1989C46.9737 42.8784 47.3616 42.6085 47.7833 42.423C48.2218 42.2375 48.6772 42.1531 49.1663 42.1531C48.6772 42.1531 48.2218 42.0519 47.7833 41.8664ZM39.9909 29.8067C40.2101 29.6718 40.4631 29.6043 40.7499 29.6043C40.4631 29.6043 40.2101 29.5369 39.9909 29.4019C39.7547 29.2501 39.5692 29.0646 39.4343 28.8453C39.2825 28.6092 39.215 28.3562 39.215 28.0695C39.215 28.3562 39.1475 28.6092 39.0126 28.8453C38.8777 29.0646 38.6921 29.2501 38.456 29.4019C38.2199 29.5369 37.9669 29.6043 37.6801 29.6043C37.9669 29.6043 38.2199 29.6718 38.456 29.8067C38.6921 29.9417 38.8777 30.1272 39.0126 30.3633C39.1475 30.5995 39.215 30.8525 39.215 31.1392C39.215 30.8525 39.2825 30.5995 39.4343 30.3633C39.5692 30.1272 39.7547 29.9417 39.9909 29.8067ZM43.0269 35.0354C43.1618 35.2715 43.2293 35.5245 43.2293 35.8113C43.2293 35.5245 43.2967 35.2715 43.4485 35.0354C43.5835 34.8161 43.769 34.6306 44.0051 34.4788C44.2244 34.3439 44.4774 34.2764 44.7641 34.2764C44.4774 34.2764 44.2244 34.2089 44.0051 34.074C43.769 33.9222 43.5835 33.7367 43.4485 33.5174C43.2967 33.2813 43.2293 33.0283 43.2293 32.7415C43.2293 33.0283 43.1618 33.2813 43.0269 33.5174C42.8919 33.7367 42.7064 33.9222 42.4703 34.074C42.2341 34.2089 41.9811 34.2764 41.6944 34.2764C41.9811 34.2764 42.2341 34.3439 42.4703 34.4788C42.7064 34.6306 42.8919 34.8161 43.0269 35.0354ZM44.275 50.1648C44.1401 49.9287 44.0726 49.6757 44.0726 49.3889C44.0726 49.6757 44.0051 49.9287 43.8533 50.1648C43.7184 50.4009 43.5329 50.5865 43.2967 50.7214C43.0775 50.8563 42.8245 50.9238 42.5377 50.9238C42.8245 50.9238 43.0775 50.9913 43.2967 51.1431C43.5329 51.278 43.7184 51.4635 43.8533 51.6828C44.0051 51.9189 44.0726 52.1719 44.0726 52.4587C44.0726 52.1719 44.1401 51.9189 44.275 51.6828C44.4099 51.4635 44.5955 51.278 44.8316 51.1431C45.0677 50.9913 45.3207 50.9238 45.6075 50.9238C45.3207 50.9238 45.0677 50.8563 44.8316 50.7214C44.5955 50.5865 44.4099 50.4009 44.275 50.1648ZM40.9691 55.4778C40.8173 55.2417 40.7499 54.9887 40.7499 54.7019C40.7499 54.9887 40.6824 55.2417 40.5475 55.4778C40.4125 55.6971 40.227 55.8826 39.9909 56.0344C39.7547 56.1693 39.5017 56.2368 39.215 56.2368C39.5017 56.2368 39.7547 56.3043 39.9909 56.4392C40.227 56.591 40.4125 56.7765 40.5475 56.9958C40.6824 57.2319 40.7499 57.4849 40.7499 57.7717C40.7499 57.4849 40.8173 57.2319 40.9691 56.9958C41.1041 56.7765 41.2896 56.591 41.5257 56.4392C41.745 56.3043 41.998 56.2368 42.2847 56.2368C41.998 56.2368 41.745 56.1693 41.5257 56.0344C41.2896 55.8826 41.1041 55.6971 40.9691 55.4778ZM14.5897 43.6037C14.5391 34.3945 22.0953 26.8213 31.3383 26.8551C33.5815 26.8551 35.6899 27.2767 37.6801 28.1032C37.191 27.749 36.6681 27.3948 36.1284 27.0743C33.2273 25.3539 30.0227 24.4937 26.5144 24.4937C22.9893 24.4937 19.7846 25.3539 16.9004 27.0743C14.0162 28.7947 11.7055 31.1055 9.98506 33.9897C8.26467 36.8739 7.40447 40.0785 7.40447 43.6037C7.40447 47.1288 8.26467 50.3335 9.98506 53.2177C11.7055 56.1019 14.0162 58.4126 16.9004 60.133C19.7846 61.8534 22.9893 62.7136 26.5144 62.7136C30.0227 62.7136 33.2273 61.8534 36.1284 60.133C36.6681 59.8125 37.191 59.4583 37.6801 59.1041C35.7067 59.9306 33.5815 60.3523 31.3383 60.3523C22.0953 60.386 14.5391 52.8129 14.5897 43.6037Z" fill="#F5F5F5"/>
<path d="M69.4744 41.0701C69.5655 40.9891 69.6565 40.9082 69.7476 40.8373C69.8691 40.7361 69.9905 40.6349 70.1221 40.5236L74.251 37.0626H74.2611C74.3117 37.012 74.3725 36.9715 74.4231 36.931C75.3743 36.2732 76.3863 35.7369 77.4692 35.3321C78.552 34.9171 79.564 34.6237 80.5153 34.4415C81.4767 34.2492 82.2053 34.1581 82.7215 34.1581L77.6311 34.148H77.5906H77.115L77.1049 34.1581C76.862 34.1379 76.3256 34.148 76.2953 34.148L72.1461 34.1581C73.7855 34.1683 75.7791 34.9475 73.2694 37.3662C72.2371 38.2264 71.2049 39.0866 70.1828 39.9468L68.513 41.3433C68.2195 41.5862 67.926 41.8291 67.6325 42.0821C67.1771 42.4667 66.7116 42.8512 66.2461 43.2358C65.7907 43.6305 65.3252 44.015 64.8698 44.3996C64.2525 44.9157 63.6453 45.4217 63.0279 45.9277V44.5008V37.4674C63.0381 37.437 63.0381 37.3965 63.0381 37.3662C63.0887 36.8703 63.2303 36.4149 63.453 36C63.7667 35.4231 64.1816 34.9779 64.718 34.6439C64.7281 34.6338 64.7483 34.6338 64.7585 34.6237C64.7686 34.6135 64.7787 34.6135 64.7888 34.6034C65.1734 34.3909 65.5883 34.2593 66.0437 34.2087H65.9931L63.0279 34.1986H61.0545H60.5991H57.3203C58.1197 34.1986 58.8281 34.482 59.4252 35.0386C59.5264 35.1297 59.6276 35.2309 59.7187 35.3321C59.7288 35.3422 59.7389 35.3624 59.7491 35.3725C60.0021 35.666 60.1943 36 60.336 36.3744C60.4676 36.6881 60.5485 37.012 60.589 37.3662C60.589 37.3965 60.589 37.437 60.5991 37.4674V48.2351V57.5353H60.589C60.589 57.5859 60.589 57.6264 60.5789 57.677C60.5485 57.9604 60.4979 58.2336 60.4069 58.4866C60.3866 58.5473 60.3664 58.608 60.336 58.6688C60.2348 58.9319 60.1134 59.1748 59.9616 59.3974L59.8705 59.5188C59.7794 59.6302 59.6883 59.7415 59.5871 59.8528C58.9597 60.5106 58.2007 60.8446 57.3203 60.8446H60.5991H61.0545H62.5624H63.0279H66.2967C66.2056 60.8446 66.1247 60.8446 66.0437 60.8344C65.5782 60.794 65.1531 60.6624 64.7585 60.4296H64.7483L64.7281 60.4094C64.6876 60.3892 64.6471 60.3689 64.6168 60.3386C64.465 60.2475 64.3233 60.1362 64.1917 60.0147C63.5441 59.4176 63.1595 58.6384 63.0381 57.677C63.0279 57.6669 63.0279 57.6466 63.0279 57.6365V47.1522V46.4539C63.3417 46.2009 63.6453 45.9378 63.959 45.6747C64.1715 45.5027 64.3739 45.3306 64.5864 45.1586C65.5681 44.3389 66.5598 43.509 67.5415 42.6893L74.5243 57.7984C75.2225 59.4278 73.7045 60.8142 72.055 60.8041H75.7994H75.9107H78.1371H78.6026H82.8227C82.2661 60.8041 81.6285 60.6928 80.8897 60.4802C80.151 60.2576 79.4527 59.9338 78.7949 59.4986C78.1371 59.0634 77.6109 58.517 77.2364 57.8592L69.4744 41.0701ZM66.0538 34.2087H66.0437H66.0538ZM94.9869 48.9131C94.9869 48.7815 94.9768 48.6399 94.9666 48.4982C94.9768 48.1035 94.9565 47.7189 94.8857 47.3243C94.7744 46.6968 94.5618 46.1099 94.2481 45.5533C94.1368 45.3509 94.0052 45.1586 93.8737 44.9764C93.0843 43.9745 92.0824 43.337 90.8579 43.084C90.4531 43.003 90.0382 42.9727 89.6233 43.003C89.4209 43.0131 89.2185 43.0435 89.006 43.084C88.9958 43.084 88.9756 43.084 88.9554 43.0941C88.0851 43.2864 87.3261 43.6811 86.6885 44.2781C86.4153 44.5311 86.1623 44.8044 85.9497 45.1181C85.9093 45.1586 85.2312 46.0694 85.2312 46.5147V46.5551C85.2312 46.6968 85.2616 46.8284 85.3223 46.9397C85.5045 47.2635 85.7676 47.4255 86.1117 47.4255C86.3242 47.4255 86.5165 47.3546 86.6784 47.2231C86.8099 47.1117 86.901 46.9701 86.9516 46.8081V46.798C86.9617 46.7677 86.9617 46.7373 86.9719 46.7069L86.982 46.5754V46.5349C86.9921 46.3224 87.0123 46.1402 87.0427 45.9884C87.2147 45.2294 87.5487 44.602 88.0446 44.1263C88.5405 43.6406 89.1072 43.3977 89.7548 43.3977C90.4835 43.3977 91.1109 43.6912 91.627 44.2883C92.1432 44.8853 92.4569 45.6342 92.548 46.5349V46.7069V47.1016V47.2838V47.3243V51.7163C91.6574 50.4918 90.443 49.7025 88.9048 49.3685C87.7916 49.156 86.7087 49.2369 85.6563 49.6114C84.6139 49.9858 83.7335 50.6133 83.0149 51.4937C82.2863 52.445 81.8815 53.5076 81.8107 54.6714C81.7398 55.8352 82.0131 56.9281 82.6304 57.9604C83.2882 59.0027 84.1686 59.7617 85.2616 60.2374C86.3545 60.713 87.5082 60.8648 88.7125 60.6826C90.3114 60.3892 91.5866 59.5998 92.548 58.3146V58.355C92.548 59.0331 92.7807 59.5998 93.2564 60.0754C93.56 60.379 93.9142 60.5916 94.3291 60.7029C94.5416 60.7636 94.7541 60.794 94.9869 60.794H98.2455C97.4056 60.794 96.687 60.5005 96.0697 59.9034C95.4625 59.3063 95.0982 58.5574 94.9869 57.6466V48.9131ZM89.4411 60.0957C88.925 60.2576 88.3988 60.3487 87.8624 60.3588C87.1237 60.0046 86.5165 59.3468 86.0509 58.3753C85.5854 57.4038 85.3527 56.2804 85.3527 55.0053C85.3527 53.7302 85.5854 52.6069 86.0509 51.6354C86.5266 50.6639 87.1338 50.0061 87.8725 49.6519C88.8542 49.6822 89.765 49.9555 90.5847 50.4513C91.4044 50.9472 92.0622 51.605 92.548 52.445V52.6069V52.8498V57.5556C91.8497 58.7801 90.8174 59.62 89.4411 60.0957ZM104.267 57.6264C104.257 57.5758 104.257 57.5353 104.257 57.4847L104.247 57.4746V49.3381V43.4078C104.054 43.843 103.801 44.2377 103.498 44.5919V44.602V44.5919C103.457 44.6323 103.417 44.6728 103.376 44.7234C103.184 44.9258 102.951 45.0877 102.688 45.1991C102.385 45.3407 102.061 45.4116 101.717 45.4116C101.383 45.4116 101.079 45.3509 100.786 45.2193C100.776 45.2092 100.755 45.2092 100.735 45.1991C100.705 45.1889 100.674 45.1889 100.634 45.1889C100.472 45.1889 100.33 45.3205 100.33 45.4925C100.33 45.6039 100.381 45.6949 100.492 45.7557L100.553 45.786C100.948 45.9378 101.373 45.9783 101.808 45.8973V49.3381V57.6365C101.696 58.5473 101.332 59.3063 100.715 59.9034C100.108 60.5005 99.3891 60.794 98.5491 60.794H101.808H102.283H103.791H104.247H107.526C106.686 60.794 105.967 60.4904 105.35 59.8933C104.743 59.2962 104.378 58.5372 104.267 57.6264ZM103.032 42.1226C103.437 42.1226 103.781 41.9809 104.065 41.6975C104.358 41.4041 104.5 41.06 104.5 40.6552C104.5 40.2504 104.358 39.9063 104.065 39.6128C103.781 39.3193 103.437 39.1777 103.032 39.1777C102.617 39.1777 102.273 39.3193 101.98 39.6128C101.696 39.9063 101.555 40.2504 101.555 40.6552C101.555 41.06 101.696 41.4041 101.98 41.6975C102.273 41.9809 102.617 42.1226 103.032 42.1226ZM134.404 57.6264C134.394 57.596 134.394 57.5657 134.394 57.5353V57.5252V48.1845V47.0308V46.4944C134.384 46.4236 134.374 46.3629 134.364 46.3021C134.344 46.1503 134.313 46.0087 134.273 45.867C134.242 45.7961 134.222 45.7253 134.192 45.6545C134.131 45.5027 134.06 45.3711 133.989 45.2395C133.898 45.0877 133.787 44.9461 133.666 44.8246V44.8145L133.655 44.8044C133.504 44.6425 133.321 44.5109 133.129 44.3996C132.876 44.2275 132.623 44.096 132.35 43.9847C132.32 43.9745 132.279 43.9543 132.249 43.9442C132.239 43.9442 132.239 43.9442 132.228 43.9341L132.137 43.9037C131.965 43.8329 131.793 43.7721 131.621 43.7215C130.984 43.5495 130.346 43.4989 129.688 43.5697C127.745 43.8126 126.106 44.9157 124.851 46.4135C124.811 46.4641 124.77 46.5045 124.73 46.5551C124.446 46.9093 124.183 47.2635 123.93 47.638V47.0207V46.4843C123.92 46.4135 123.92 46.3527 123.91 46.292C123.89 46.1402 123.859 45.9985 123.809 45.8569C123.788 45.786 123.768 45.7152 123.738 45.6443C123.677 45.4925 123.606 45.361 123.525 45.2294C123.434 45.0776 123.333 44.9359 123.212 44.8145V44.8044C123.201 44.8044 123.201 44.8044 123.201 44.7943C123.04 44.6323 122.867 44.5008 122.675 44.3895C122.422 44.2275 122.159 44.0859 121.886 43.9745H121.876C121.805 43.9442 121.744 43.9239 121.683 43.8936C121.511 43.8227 121.339 43.762 121.167 43.7114C120.53 43.5394 119.892 43.4888 119.234 43.5596C118.263 43.6811 117.372 44.0049 116.553 44.521C115.733 45.0371 115.014 45.6646 114.397 46.4033C114.357 46.4539 114.316 46.4944 114.276 46.545C114.012 46.8587 113.77 47.1927 113.537 47.5267V43.4078C113.345 43.843 113.102 44.2377 112.788 44.5919V44.602V44.5919V44.5817C112.747 44.6323 112.707 44.6728 112.667 44.7234C112.474 44.9258 112.241 45.0877 111.978 45.1991C111.685 45.3407 111.361 45.4116 111.007 45.4116C110.673 45.4116 110.369 45.3509 110.076 45.2193C110.066 45.2092 110.045 45.2092 110.035 45.1991C110.005 45.1889 109.964 45.1788 109.934 45.1788C109.762 45.1788 109.631 45.3205 109.631 45.4824C109.631 45.5937 109.681 45.6848 109.782 45.7557C109.803 45.7658 109.823 45.7658 109.843 45.7759C110.238 45.9277 110.663 45.9682 111.108 45.8973V57.6365C110.987 58.5473 110.622 59.3063 110.015 59.9034C109.408 60.5005 108.679 60.794 107.839 60.794H111.108H113.537H116.826C115.986 60.794 115.257 60.4904 114.64 59.8933C114.033 59.2962 113.668 58.5372 113.557 57.6264C113.547 57.5758 113.547 57.5252 113.547 57.4746H113.537V49.328V48.2755L113.557 48.2452C113.942 47.6076 114.387 47.0105 114.883 46.4539C115.004 46.3224 115.136 46.1908 115.267 46.0694C115.581 45.786 115.915 45.5431 116.269 45.3306C116.704 45.0776 117.15 44.9056 117.615 44.8044C117.929 44.7335 118.243 44.7133 118.566 44.7335C118.617 44.7335 118.668 44.7335 118.718 44.7437C118.931 44.774 119.153 44.8145 119.366 44.8853C119.558 44.9562 119.74 45.0371 119.933 45.1282C119.943 45.1383 119.963 45.1485 119.973 45.1586C120.206 45.2901 120.429 45.4521 120.641 45.6443L120.661 45.6646L120.722 45.7253L120.763 45.7658C120.823 45.8265 120.884 45.8872 120.945 45.9581C120.975 45.9884 120.995 46.0188 121.026 46.0491V46.0593C121.046 46.0896 121.066 46.1301 121.086 46.1605L121.147 46.2515C121.36 46.626 121.471 47.0308 121.491 47.4862V57.5151C121.491 57.5556 121.491 57.596 121.481 57.6264C121.37 58.5372 121.005 59.2962 120.398 59.8933C119.791 60.4904 119.062 60.794 118.222 60.794H121.957H122.048H123.373H123.465H127.199C126.359 60.794 125.64 60.4904 125.023 59.8933C124.416 59.2962 124.052 58.5372 123.94 57.6264C123.94 57.6062 123.94 57.5859 123.93 57.5556V57.5353V48.3869C124.355 47.6683 124.851 46.9903 125.418 46.373C125.519 46.2718 125.62 46.1706 125.721 46.0795C126.035 45.786 126.379 45.5431 126.733 45.3306C127.158 45.0776 127.604 44.9056 128.069 44.8044C128.383 44.7335 128.707 44.7133 129.02 44.7335C129.071 44.7335 129.132 44.7335 129.182 44.7437C129.395 44.774 129.607 44.8145 129.82 44.8853C130.012 44.9562 130.204 45.0371 130.387 45.1282C130.397 45.1383 130.417 45.1485 130.437 45.1586C130.67 45.2901 130.893 45.4521 131.105 45.6443L131.125 45.6646L131.186 45.7253L131.227 45.7658C131.287 45.8265 131.348 45.8872 131.409 45.9581C131.459 46.0289 131.5 46.0896 131.55 46.1605C131.561 46.1908 131.581 46.2313 131.601 46.2617C131.824 46.6462 131.945 47.0814 131.955 47.557V47.5671V47.5975V47.9112V48.1845V48.397V49.3685V57.5252V57.5353C131.945 57.5657 131.945 57.596 131.945 57.6264C131.834 58.5372 131.469 59.2962 130.852 59.8933C130.245 60.4904 129.526 60.794 128.686 60.794H131.955H134.394H137.663C136.823 60.794 136.094 60.4904 135.487 59.8933C134.88 59.2962 134.516 58.5372 134.404 57.6264ZM151.254 48.9131C151.254 48.7815 151.244 48.6399 151.234 48.4982C151.244 48.1035 151.224 47.7189 151.153 47.3243C151.042 46.6968 150.829 46.1099 150.515 45.5533C150.404 45.3509 150.272 45.1586 150.141 44.9764C149.352 43.9745 148.35 43.337 147.125 43.084C146.72 43.003 146.305 42.9727 145.89 43.003C145.688 43.0131 145.486 43.0435 145.273 43.084C145.263 43.084 145.243 43.084 145.223 43.0941C144.352 43.2864 143.593 43.6811 142.956 44.2781C142.682 44.5311 142.429 44.8044 142.217 45.1181C142.176 45.1586 141.498 46.0694 141.498 46.5147V46.5551C141.498 46.6968 141.529 46.8284 141.589 46.9397C141.772 47.2635 142.035 47.4255 142.379 47.4255C142.591 47.4255 142.784 47.3546 142.946 47.2231C143.077 47.1117 143.168 46.9701 143.219 46.8081V46.798C143.229 46.7677 143.229 46.7373 143.239 46.7069L143.249 46.5754V46.5349C143.259 46.3224 143.28 46.1402 143.31 45.9884C143.482 45.2294 143.816 44.602 144.312 44.1263C144.808 43.6406 145.374 43.3977 146.022 43.3977C146.751 43.3977 147.378 43.6912 147.894 44.2883C148.41 44.8853 148.724 45.6342 148.815 46.5349V46.7069V47.1016V47.2838V47.3243V51.7163C147.925 50.4918 146.71 49.7025 145.172 49.3685C144.059 49.156 142.976 49.2369 141.923 49.6114C140.881 49.9858 140.001 50.6133 139.282 51.4937C138.553 52.445 138.149 53.5076 138.078 54.6714C138.007 55.8352 138.28 56.9281 138.898 57.9604C139.555 59.0027 140.436 59.7617 141.529 60.2374C142.622 60.713 143.775 60.8648 144.98 60.6826C146.579 60.3892 147.854 59.5998 148.815 58.3146V58.355C148.815 59.0331 149.048 59.5998 149.524 60.0754C149.827 60.379 150.181 60.5916 150.596 60.7029C150.809 60.7636 151.021 60.794 151.254 60.794H154.513C153.673 60.794 152.954 60.5005 152.337 59.9034C151.73 59.3063 151.365 58.5574 151.254 57.6466V48.9131ZM145.708 60.0957C145.192 60.2576 144.666 60.3487 144.13 60.3588C143.391 60.0046 142.784 59.3468 142.318 58.3753C141.853 57.4038 141.62 56.2804 141.62 55.0053C141.62 53.7302 141.853 52.6069 142.318 51.6354C142.794 50.6639 143.401 50.0061 144.14 49.6519C145.121 49.6822 146.032 49.9555 146.852 50.4513C147.672 50.9472 148.329 51.605 148.815 52.445V52.6069V52.8498V57.5556C148.117 58.7801 147.085 59.62 145.708 60.0957Z" fill="#F5F5F5"/>
</svg>
