<svg width="25" height="23" viewBox="0 0 25 23" fill="none" xmlns="http://www.w3.org/2000/svg">
<path d="M23.666 10.7109C23.4219 10.6035 23.1973 10.457 23.0117 10.2715C22.8262 10.0859 22.6699 9.86133 22.5625 9.60742C22.4551 9.36328 22.4062 9.08984 22.4062 8.80664C22.4062 9.08984 22.3477 9.36328 22.2402 9.60742C22.1328 9.86133 21.9863 10.0859 21.8008 10.2715C21.6152 10.457 21.3906 10.6035 21.1367 10.7109C20.8926 10.8184 20.6191 10.877 20.3359 10.877C20.6191 10.877 20.8926 10.9258 21.1367 11.0332C21.3906 11.1406 21.6152 11.2969 21.8008 11.4824C21.9863 11.668 22.1328 11.8926 22.2402 12.1367C22.3477 12.3809 22.4062 12.6543 22.4062 12.9375C22.4062 12.6543 22.4551 12.3809 22.5625 12.1367C22.6699 11.8926 22.8262 11.668 23.0117 11.4824C23.1973 11.2969 23.4219 11.1406 23.666 11.0332C23.9199 10.9258 24.1836 10.877 24.4668 10.877C24.1836 10.877 23.9199 10.8184 23.666 10.7109ZM19.1543 3.72852C19.2812 3.65039 19.4277 3.61133 19.5938 3.61133C19.4277 3.61133 19.2812 3.57227 19.1543 3.49414C19.0176 3.40625 18.9102 3.29883 18.832 3.17188C18.7441 3.03516 18.7051 2.88867 18.7051 2.72266C18.7051 2.88867 18.666 3.03516 18.5879 3.17188C18.5098 3.29883 18.4023 3.40625 18.2656 3.49414C18.1289 3.57227 17.9824 3.61133 17.8164 3.61133C17.9824 3.61133 18.1289 3.65039 18.2656 3.72852C18.4023 3.80664 18.5098 3.91406 18.5879 4.05078C18.666 4.1875 18.7051 4.33398 18.7051 4.5C18.7051 4.33398 18.7441 4.1875 18.832 4.05078C18.9102 3.91406 19.0176 3.80664 19.1543 3.72852ZM20.9121 6.75586C20.9902 6.89258 21.0293 7.03906 21.0293 7.20508C21.0293 7.03906 21.0684 6.89258 21.1562 6.75586C21.2344 6.62891 21.3418 6.52148 21.4785 6.43359C21.6055 6.35547 21.752 6.31641 21.918 6.31641C21.752 6.31641 21.6055 6.27734 21.4785 6.19922C21.3418 6.11133 21.2344 6.00391 21.1562 5.87695C21.0684 5.74023 21.0293 5.59375 21.0293 5.42773C21.0293 5.59375 20.9902 5.74023 20.9121 5.87695C20.834 6.00391 20.7266 6.11133 20.5898 6.19922C20.4531 6.27734 20.3066 6.31641 20.1406 6.31641C20.3066 6.31641 20.4531 6.35547 20.5898 6.43359C20.7266 6.52148 20.834 6.62891 20.9121 6.75586ZM21.6348 15.5156C21.5566 15.3789 21.5176 15.2324 21.5176 15.0664C21.5176 15.2324 21.4785 15.3789 21.3906 15.5156C21.3125 15.6523 21.2051 15.7598 21.0684 15.8379C20.9414 15.916 20.7949 15.9551 20.6289 15.9551C20.7949 15.9551 20.9414 15.9941 21.0684 16.082C21.2051 16.1602 21.3125 16.2676 21.3906 16.3945C21.4785 16.5312 21.5176 16.6777 21.5176 16.8438C21.5176 16.6777 21.5566 16.5312 21.6348 16.3945C21.7129 16.2676 21.8203 16.1602 21.957 16.082C22.0938 15.9941 22.2402 15.9551 22.4062 15.9551C22.2402 15.9551 22.0938 15.916 21.957 15.8379C21.8203 15.7598 21.7129 15.6523 21.6348 15.5156ZM19.7207 18.5918C19.6328 18.4551 19.5938 18.3086 19.5938 18.1426C19.5938 18.3086 19.5547 18.4551 19.4766 18.5918C19.3984 18.7188 19.291 18.8262 19.1543 18.9141C19.0176 18.9922 18.8711 19.0312 18.7051 19.0312C18.8711 19.0312 19.0176 19.0703 19.1543 19.1484C19.291 19.2363 19.3984 19.3438 19.4766 19.4707C19.5547 19.6074 19.5938 19.7539 19.5938 19.9199C19.5938 19.7539 19.6328 19.6074 19.7207 19.4707C19.7988 19.3438 19.9062 19.2363 20.043 19.1484C20.1699 19.0703 20.3164 19.0312 20.4824 19.0312C20.3164 19.0312 20.1699 18.9922 20.043 18.9141C19.9062 18.8262 19.7988 18.7188 19.7207 18.5918ZM4.44727 11.7168C4.41797 6.38477 8.79297 2 14.1445 2.01953C15.4434 2.01953 16.6641 2.26367 17.8164 2.74219C17.5332 2.53711 17.2305 2.33203 16.918 2.14648C15.2383 1.15039 13.3828 0.652344 11.3516 0.652344C9.31055 0.652344 7.45508 1.15039 5.78516 2.14648C4.11523 3.14258 2.77734 4.48047 1.78125 6.15039C0.785156 7.82031 0.287109 9.67578 0.287109 11.7168C0.287109 13.7578 0.785156 15.6133 1.78125 17.2832C2.77734 18.9531 4.11523 20.291 5.78516 21.2871C7.45508 22.2832 9.31055 22.7812 11.3516 22.7812C13.3828 22.7812 15.2383 22.2832 16.918 21.2871C17.2305 21.1016 17.5332 20.8965 17.8164 20.6914C16.6738 21.1699 15.4434 21.4141 14.1445 21.4141C8.79297 21.4336 4.41797 17.0488 4.44727 11.7168Z" fill="#110200"/>
</svg>
