<svg width="89" height="48" viewBox="0 0 89 48" fill="none" xmlns="http://www.w3.org/2000/svg">
<path d="M27.666 24.7109C27.9199 24.8216 28.1868 24.877 28.4668 24.877C28.1868 24.877 27.9199 24.929 27.666 25.0332C27.4186 25.1439 27.2005 25.2936 27.0117 25.4824C26.8229 25.6712 26.6732 25.8893 26.5625 26.1367C26.4583 26.3841 26.4062 26.651 26.4062 26.9375C26.4062 26.651 26.3509 26.3841 26.2402 26.1367C26.1361 25.8893 25.9896 25.6712 25.8008 25.4824C25.612 25.2936 25.3906 25.1439 25.1367 25.0332C24.8893 24.929 24.6224 24.877 24.3359 24.877C24.6224 24.877 24.8893 24.8216 25.1367 24.7109C25.3906 24.6068 25.612 24.4603 25.8008 24.2715C25.9896 24.0827 26.1361 23.8613 26.2402 23.6074C26.3509 23.36 26.4062 23.0931 26.4062 22.8066C26.4062 23.0931 26.4583 23.36 26.5625 23.6074C26.6732 23.8613 26.8229 24.0827 27.0117 24.2715C27.2005 24.4603 27.4186 24.6068 27.666 24.7109ZM23.1543 17.7285C23.0176 17.8066 22.9102 17.9141 22.832 18.0508C22.7474 18.1875 22.7051 18.3372 22.7051 18.5C22.7051 18.3372 22.666 18.1875 22.5879 18.0508C22.5098 17.9141 22.4023 17.8066 22.2656 17.7285C22.1289 17.6504 21.9792 17.6113 21.8164 17.6113C21.9792 17.6113 22.1289 17.5723 22.2656 17.4941C22.4023 17.4095 22.5098 17.3021 22.5879 17.1719C22.666 17.0352 22.7051 16.8854 22.7051 16.7227C22.7051 16.8854 22.7474 17.0352 22.832 17.1719C22.9102 17.3021 23.0176 17.4095 23.1543 17.4941C23.2845 17.5723 23.431 17.6113 23.5938 17.6113C23.431 17.6113 23.2845 17.6504 23.1543 17.7285ZM24.9121 20.7559C24.834 20.6257 24.7266 20.5182 24.5898 20.4336C24.4531 20.3555 24.3034 20.3164 24.1406 20.3164C24.3034 20.3164 24.4531 20.2773 24.5898 20.1992C24.7266 20.1146 24.834 20.0072 24.9121 19.877C24.9902 19.7402 25.0293 19.5905 25.0293 19.4277C25.0293 19.5905 25.0716 19.7402 25.1562 19.877C25.2344 20.0072 25.3418 20.1146 25.4785 20.1992C25.6087 20.2773 25.7552 20.3164 25.918 20.3164C25.7552 20.3164 25.6087 20.3555 25.4785 20.4336C25.3418 20.5182 25.2344 20.6257 25.1562 20.7559C25.0716 20.8926 25.0293 21.0423 25.0293 21.2051C25.0293 21.0423 24.9902 20.8926 24.9121 20.7559ZM25.6348 29.5156C25.7129 29.6523 25.8203 29.7598 25.957 29.8379C26.0938 29.916 26.2435 29.9551 26.4062 29.9551C26.2435 29.9551 26.0938 29.9974 25.957 30.082C25.8203 30.1602 25.7129 30.2643 25.6348 30.3945C25.5566 30.5312 25.5176 30.681 25.5176 30.8438C25.5176 30.681 25.4753 30.5312 25.3906 30.3945C25.3125 30.2643 25.2051 30.1602 25.0684 30.082C24.9382 29.9974 24.7917 29.9551 24.6289 29.9551C24.7917 29.9551 24.9382 29.916 25.0684 29.8379C25.2051 29.7598 25.3125 29.6523 25.3906 29.5156C25.4753 29.3789 25.5176 29.2292 25.5176 29.0664C25.5176 29.2292 25.5566 29.3789 25.6348 29.5156ZM23.7207 32.5918C23.7988 32.722 23.9062 32.8294 24.043 32.9141C24.1732 32.9922 24.3197 33.0312 24.4824 33.0312C24.3197 33.0312 24.1732 33.0703 24.043 33.1484C23.9062 33.2331 23.7988 33.3405 23.7207 33.4707C23.6361 33.6074 23.5938 33.7572 23.5938 33.9199C23.5938 33.7572 23.5547 33.6074 23.4766 33.4707C23.3984 33.3405 23.291 33.2331 23.1543 33.1484C23.0176 33.0703 22.8678 33.0312 22.7051 33.0312C22.8678 33.0312 23.0176 32.9922 23.1543 32.9141C23.291 32.8294 23.3984 32.722 23.4766 32.5918C23.5547 32.4551 23.5938 32.3053 23.5938 32.1426C23.5938 32.3053 23.6361 32.4551 23.7207 32.5918ZM8.44727 25.7168C8.44727 27.0579 8.69792 28.3145 9.19922 29.4863C9.70052 30.6582 10.3939 31.6868 11.2793 32.5723C12.1647 33.4577 13.1934 34.1543 14.3652 34.6621C15.5436 35.1634 16.8034 35.4141 18.1445 35.4141C19.4466 35.4141 20.6706 35.1732 21.8164 34.6914C21.5299 34.8997 21.2305 35.0983 20.918 35.2871C19.2383 36.2832 17.3828 36.7812 15.3516 36.7812C13.3138 36.7812 11.4583 36.2832 9.78516 35.2871C8.11198 34.291 6.77734 32.9564 5.78125 31.2832C4.78516 29.61 4.28711 27.7546 4.28711 25.7168C4.28711 23.679 4.78516 21.8236 5.78125 20.1504C6.77734 18.4772 8.11198 17.1426 9.78516 16.1465C11.4583 15.1504 13.3138 14.6523 15.3516 14.6523C17.3828 14.6523 19.2383 15.1504 20.918 16.1465C21.2305 16.3353 21.5299 16.5339 21.8164 16.7422C20.6641 16.2604 19.4401 16.0195 18.1445 16.0195C16.8034 16.0195 15.5436 16.2734 14.3652 16.7812C13.1934 17.2826 12.1647 17.9759 11.2793 18.8613C10.3939 19.7467 9.70052 20.7754 9.19922 21.9473C8.69792 23.1191 8.44727 24.3757 8.44727 25.7168Z" fill="#110200"/>
<path d="M43.6191 32.2891C43.8379 32.668 44.1387 32.9844 44.5215 33.2383C44.9043 33.4883 45.3086 33.6777 45.7344 33.8066C46.1602 33.9316 46.5332 33.9941 46.8535 33.9941H44.4102H44.1406H42.8516C42.8281 33.9941 42.8066 33.9941 42.7871 33.9941H40.6191C40.9434 33.9941 41.2383 33.916 41.5039 33.7598C41.7695 33.5996 41.957 33.3887 42.0664 33.127C42.1797 32.8652 42.1738 32.5742 42.0488 32.2539L38.0059 23.5059C37.4355 23.9824 36.8652 24.459 36.2949 24.9355C36.1738 25.0371 36.0527 25.1367 35.9316 25.2344C35.752 25.3867 35.5723 25.5371 35.3926 25.6855V26.0898V32.1602C35.3926 32.168 35.3945 32.1758 35.3984 32.1836C35.4688 32.7383 35.6914 33.1895 36.0664 33.5371C36.1445 33.6074 36.2266 33.6699 36.3125 33.7246C36.332 33.7402 36.3535 33.7539 36.377 33.7656C36.3809 33.7695 36.3848 33.7734 36.3887 33.7773C36.3926 33.7773 36.3945 33.7773 36.3945 33.7773C36.6211 33.9102 36.8691 33.9883 37.1387 34.0117C37.1855 34.0156 37.2344 34.0176 37.2852 34.0176H35.3926H35.123H34.25H33.9863H32.0879C32.5996 34.0176 33.0371 33.8262 33.4004 33.4434C33.459 33.3809 33.5137 33.3164 33.5645 33.25C33.584 33.2266 33.6016 33.2031 33.6172 33.1797C33.7031 33.0508 33.7754 32.9102 33.834 32.7578C33.8496 32.7227 33.8633 32.6875 33.875 32.6523C33.9258 32.5039 33.959 32.3477 33.9746 32.1836C33.9785 32.1562 33.9805 32.1289 33.9805 32.1016H33.9863V26.7168V20.4824C33.9824 20.4629 33.9805 20.4434 33.9805 20.4238C33.957 20.2207 33.9082 20.0293 33.834 19.8496C33.752 19.6348 33.6387 19.4414 33.4941 19.2695C33.4863 19.2617 33.4805 19.2539 33.4766 19.2461C33.4219 19.1875 33.3652 19.1309 33.3066 19.0762C32.959 18.752 32.5527 18.5898 32.0879 18.5898H33.9863H34.25H35.3926L37.1094 18.5957H37.1387C36.877 18.623 36.6348 18.6992 36.4121 18.8242C36.4043 18.8281 36.3984 18.832 36.3945 18.8359C36.3867 18.8398 36.3789 18.8438 36.3711 18.8477C36.0625 19.0391 35.8184 19.3008 35.6387 19.6328C35.5098 19.875 35.4297 20.1387 35.3984 20.4238C35.3984 20.4434 35.3965 20.4629 35.3926 20.4824V24.5547V25.3809C35.748 25.0879 36.1035 24.793 36.459 24.4961C36.7246 24.2734 36.9902 24.0488 37.2559 23.8223C37.5254 23.5996 37.793 23.377 38.0586 23.1543C38.2305 23.0098 38.4004 22.8672 38.5684 22.7266C38.8926 22.457 39.2148 22.1875 39.5352 21.918C40.1289 21.4219 40.7246 20.9238 41.3223 20.4238C41.6777 20.0762 41.8926 19.7832 41.9668 19.5449C42.041 19.3066 42.0176 19.1172 41.8965 18.9766C41.7793 18.832 41.6055 18.7285 41.375 18.666C41.1484 18.5996 40.9141 18.5664 40.6719 18.5664L43.0742 18.5605C43.082 18.5605 43.1152 18.5605 43.1738 18.5605C43.2324 18.5605 43.2949 18.5605 43.3613 18.5605C43.4316 18.5605 43.4922 18.5625 43.543 18.5664C43.5469 18.5625 43.5488 18.5605 43.5488 18.5605H43.8242H43.8477L46.7949 18.5664C46.498 18.5664 46.0723 18.6211 45.5176 18.7305C44.9668 18.8359 44.3789 19.0078 43.7539 19.2461C43.1289 19.4805 42.541 19.7891 41.9902 20.1719C41.959 20.1953 41.9277 20.2207 41.8965 20.248C41.8965 20.248 41.8945 20.248 41.8906 20.248C41.0938 20.916 40.2969 21.584 39.5 22.252C39.4258 22.3145 39.3535 22.375 39.2832 22.4336C39.2324 22.4766 39.1797 22.5215 39.125 22.5684L43.6191 32.2891ZM37.1445 18.5957H37.1387C37.1426 18.5957 37.1445 18.5957 37.1445 18.5957ZM53.8965 32.166C53.9629 32.6934 54.1719 33.1289 54.5234 33.4727C54.8789 33.8164 55.2988 33.9883 55.7832 33.9883H53.8965C53.7637 33.9883 53.6367 33.9707 53.5156 33.9355C53.2773 33.8691 53.0703 33.748 52.8945 33.5723C52.6211 33.2988 52.4844 32.9668 52.4844 32.5762V32.5527C51.9297 33.2988 51.1895 33.7559 50.2637 33.9238C49.5645 34.0293 48.8984 33.9434 48.2656 33.666C47.6328 33.3887 47.125 32.9492 46.7422 32.3477C46.3867 31.75 46.2285 31.1152 46.2676 30.4434C46.3105 29.7676 46.543 29.1543 46.9648 28.6035C47.3789 28.0918 47.8887 27.7285 48.4941 27.5137C49.1035 27.2988 49.7305 27.252 50.375 27.373C51.2656 27.5684 51.9688 28.0215 52.4844 28.7324V26.1895V26.166V26.0605V25.832V25.7324C52.4297 25.209 52.252 24.7754 51.9512 24.4316C51.6504 24.0879 51.2891 23.916 50.8672 23.916C50.4922 23.916 50.1621 24.0566 49.877 24.3379C49.5918 24.6152 49.3984 24.9746 49.2969 25.416C49.2812 25.5059 49.2695 25.6113 49.2617 25.7324C49.2617 25.7402 49.2617 25.748 49.2617 25.7559L49.2559 25.832C49.252 25.8516 49.248 25.8691 49.2441 25.8848C49.2441 25.8887 49.2441 25.8906 49.2441 25.8906C49.2129 25.9844 49.1602 26.0645 49.0859 26.1309C48.9922 26.209 48.8828 26.248 48.7578 26.248C48.5586 26.248 48.4062 26.1543 48.3008 25.9668C48.2656 25.9004 48.248 25.8262 48.248 25.7441C48.248 25.7363 48.248 25.7285 48.248 25.7207C48.248 25.6543 48.2676 25.5781 48.3066 25.4922C48.3457 25.4023 48.3926 25.3145 48.4473 25.2285C48.502 25.1426 48.5488 25.0703 48.5879 25.0117C48.6309 24.9531 48.6562 24.9199 48.6641 24.9121C48.7891 24.7324 48.9316 24.5703 49.0918 24.4258C49.4629 24.082 49.9004 23.8535 50.4043 23.7402C50.416 23.7363 50.4258 23.7344 50.4336 23.7344C50.5547 23.7109 50.6738 23.6953 50.791 23.6875C51.0332 23.6719 51.2715 23.6875 51.5059 23.7344C52.2129 23.8828 52.7949 24.248 53.252 24.8301C53.3301 24.9355 53.4023 25.0469 53.4688 25.1641C53.6523 25.4844 53.7754 25.8262 53.8379 26.1895C53.877 26.416 53.8926 26.6426 53.8848 26.8691C53.8926 26.9512 53.8965 27.0312 53.8965 27.1094V32.166ZM50.6855 33.584C51.4824 33.3105 52.082 32.8203 52.4844 32.1133V29.3887V29.248V29.1543C52.2031 28.6699 51.8242 28.2852 51.3477 28C50.8711 27.7109 50.3477 27.5566 49.7773 27.5371C49.3477 27.7402 48.9961 28.123 48.7227 28.6855C48.4531 29.248 48.3184 29.8984 48.3184 30.6367C48.3184 31.375 48.4531 32.0254 48.7227 32.5879C48.9922 33.1504 49.3418 33.5332 49.7715 33.7363C50.0801 33.7285 50.3848 33.6777 50.6855 33.584ZM59.2695 32.1543C59.3359 32.6816 59.5449 33.1191 59.8965 33.4668C60.252 33.8145 60.6719 33.9883 61.1562 33.9883H59.2578H58.9941H58.1211H57.8457H55.959C56.4434 33.9883 56.8613 33.8164 57.2129 33.4727C57.5684 33.125 57.7793 32.6875 57.8457 32.1602V27.3555V25.3633C57.5918 25.4102 57.3496 25.3887 57.1191 25.2988C57.1074 25.291 57.0957 25.2852 57.084 25.2812C57.0215 25.2461 56.9902 25.1953 56.9902 25.1289C56.9902 25.0781 57.0078 25.0371 57.043 25.0059C57.0781 24.9707 57.1191 24.9531 57.166 24.9531C57.1895 24.9531 57.209 24.9551 57.2246 24.959C57.2363 24.9629 57.2461 24.9668 57.2539 24.9707C57.4219 25.0449 57.6016 25.082 57.793 25.082C57.9922 25.082 58.1797 25.041 58.3555 24.959C58.5078 24.8926 58.6406 24.8008 58.7539 24.6836C58.7773 24.6562 58.8008 24.6309 58.8242 24.6074C58.8242 24.6113 58.8242 24.6133 58.8242 24.6133C58.8242 24.6133 58.8242 24.6113 58.8242 24.6074C59 24.4004 59.1445 24.1719 59.2578 23.9219V27.3555V32.0664L59.2637 32.0723C59.2637 32.0996 59.2656 32.127 59.2695 32.1543ZM58.5547 23.1777C58.3164 23.1777 58.1133 23.0957 57.9453 22.9316C57.7812 22.7637 57.6992 22.5625 57.6992 22.3281C57.6992 22.0938 57.7812 21.8926 57.9453 21.7246C58.1133 21.5566 58.3164 21.4727 58.5547 21.4727C58.7891 21.4727 58.9883 21.5566 59.1523 21.7246C59.3203 21.8926 59.4043 22.0938 59.4043 22.3281C59.4043 22.5625 59.3203 22.7637 59.1523 22.9316C58.9883 23.0957 58.7891 23.1777 58.5547 23.1777ZM76.7188 32.1543C76.7852 32.6816 76.9941 33.1191 77.3457 33.4668C77.6973 33.8145 78.1172 33.9883 78.6055 33.9883H76.7129H75.3008H73.4082C73.8926 33.9883 74.3105 33.8145 74.6621 33.4668C75.0176 33.1191 75.2285 32.6816 75.2949 32.1543C75.2949 32.1387 75.2969 32.1211 75.3008 32.1016C75.3008 32.1016 75.3008 32.0996 75.3008 32.0957V27.373V26.8105V26.6875V26.5293V26.3477V26.3301C75.3008 26.3262 75.3008 26.3242 75.3008 26.3242C75.293 26.0469 75.2246 25.7969 75.0957 25.5742C75.084 25.5547 75.0742 25.5352 75.0664 25.5156C75.0391 25.4766 75.0117 25.4375 74.9844 25.3984C74.9492 25.3594 74.9141 25.3223 74.8789 25.2871C74.8711 25.2793 74.8633 25.2715 74.8555 25.2637C74.8438 25.252 74.832 25.2402 74.8203 25.2285C74.8164 25.2246 74.8125 25.2207 74.8086 25.2168C74.6875 25.1074 74.5586 25.0137 74.4219 24.9355C74.4102 24.9316 74.4004 24.9258 74.3926 24.918C74.2871 24.8633 74.1777 24.8164 74.0645 24.7773C73.9434 24.7383 73.8203 24.7109 73.6953 24.6953C73.6641 24.6914 73.6328 24.6895 73.6016 24.6895C73.418 24.6777 73.2344 24.6914 73.0508 24.7305C72.7812 24.7891 72.5234 24.8906 72.2773 25.0352C72.0703 25.1562 71.875 25.3008 71.6914 25.4688C71.6328 25.5234 71.5742 25.5801 71.5156 25.6387C71.1875 25.998 70.9004 26.3867 70.6543 26.8047V32.1016C70.6543 32.1055 70.6543 32.1094 70.6543 32.1133C70.6582 32.1289 70.6602 32.1426 70.6602 32.1543C70.7266 32.6816 70.9355 33.1191 71.2871 33.4668C71.6426 33.8145 72.0625 33.9883 72.5469 33.9883H70.3848C70.3652 33.9883 70.3477 33.9883 70.332 33.9883H69.5645C69.5488 33.9883 69.5312 33.9883 69.5117 33.9883H67.3496C67.8379 33.9883 68.2578 33.8145 68.6094 33.4668C68.9609 33.1191 69.1699 32.6816 69.2363 32.1543C69.2402 32.1348 69.2422 32.1133 69.2422 32.0898V26.2832C69.2305 26.0215 69.1641 25.7832 69.043 25.5684C69.0312 25.5488 69.0195 25.5312 69.0078 25.5156C68.9961 25.4961 68.9844 25.4766 68.9727 25.457C68.9727 25.457 68.9727 25.4551 68.9727 25.4512C68.957 25.4355 68.9414 25.418 68.9258 25.3984C68.8906 25.3594 68.8555 25.3223 68.8203 25.2871C68.8125 25.2793 68.8047 25.2715 68.7969 25.2637C68.7852 25.252 68.7734 25.2402 68.7617 25.2285C68.7578 25.2246 68.7539 25.2207 68.75 25.2168C68.6289 25.1074 68.5 25.0137 68.3633 24.9355C68.3555 24.9316 68.3477 24.9258 68.3398 24.918C68.2305 24.8633 68.1211 24.8164 68.0117 24.7773C67.8867 24.7383 67.7617 24.7109 67.6367 24.6953C67.6094 24.6914 67.5801 24.6895 67.5488 24.6895C67.3613 24.6777 67.1777 24.6914 66.998 24.7305C66.7285 24.7891 66.4688 24.8906 66.2188 25.0352C66.0117 25.1562 65.8184 25.2988 65.6387 25.4629C65.5605 25.5332 65.4863 25.6074 65.416 25.6855C65.127 26.0059 64.8711 26.3516 64.6484 26.7227L64.6367 26.7402V27.3496V32.0664H64.6426C64.6426 32.0977 64.6445 32.127 64.6484 32.1543C64.7148 32.6816 64.9238 33.1191 65.2754 33.4668C65.6309 33.8145 66.0527 33.9883 66.541 33.9883H64.6367H63.2305H61.3379C61.8262 33.9883 62.2461 33.8164 62.5977 33.4727C62.9492 33.125 63.1602 32.6875 63.2305 32.1602V25.3633C62.9727 25.4062 62.7285 25.3828 62.498 25.293C62.4863 25.2891 62.4746 25.2852 62.4629 25.2812C62.4043 25.2422 62.375 25.1895 62.375 25.123C62.375 25.0762 62.3906 25.0352 62.4219 25C62.457 24.9648 62.5 24.9473 62.5508 24.9473C62.5703 24.9473 62.5898 24.9512 62.6094 24.959C62.6172 24.9629 62.625 24.9668 62.6328 24.9707C62.8008 25.0449 62.9805 25.082 63.1719 25.082C63.375 25.082 63.5625 25.041 63.7344 24.959C63.8867 24.8926 64.0195 24.8008 64.1328 24.6836C64.1562 24.6562 64.1797 24.6289 64.2031 24.6016C64.2031 24.6055 64.2031 24.6074 64.2031 24.6074C64.2031 24.6074 64.2031 24.6094 64.2031 24.6133C64.2031 24.6094 64.2031 24.6074 64.2031 24.6074C64.3828 24.4004 64.5273 24.1719 64.6367 23.9219V26.3066C64.7695 26.1113 64.9121 25.9219 65.0645 25.7383C65.0879 25.7109 65.1113 25.6836 65.1348 25.6562C65.4941 25.2266 65.9102 24.8633 66.3828 24.5664C66.8555 24.2656 67.373 24.0801 67.9355 24.0098C68.3145 23.9668 68.6875 23.9961 69.0547 24.0977C69.1562 24.1289 69.2559 24.1641 69.3535 24.2031C69.3887 24.2188 69.4258 24.2344 69.4648 24.25H69.4707C69.6309 24.3164 69.7832 24.3965 69.9277 24.4902C70.0371 24.5527 70.1387 24.6309 70.2324 24.7246C70.2324 24.7285 70.2344 24.7305 70.2383 24.7305C70.2383 24.7305 70.2383 24.7324 70.2383 24.7363C70.3086 24.8066 70.3691 24.8867 70.4199 24.9766C70.4668 25.0508 70.5078 25.1309 70.543 25.2168C70.5586 25.2559 70.5723 25.2969 70.584 25.3398C70.6113 25.4219 70.6309 25.5059 70.6426 25.5918C70.6465 25.627 70.6504 25.6641 70.6543 25.7031V26.0137V26.3711C70.7988 26.1562 70.9531 25.9473 71.1172 25.7441C71.1406 25.7168 71.1641 25.6895 71.1875 25.6621C71.5508 25.2285 71.9668 24.8633 72.4355 24.5664C72.9082 24.2695 73.4258 24.0859 73.9883 24.0156C74.3672 23.9727 74.7402 24.002 75.1074 24.1035C75.209 24.1348 75.3086 24.1699 75.4062 24.209C75.4219 24.2129 75.4395 24.2188 75.459 24.2266C75.4629 24.2305 75.4668 24.2324 75.4707 24.2324C75.4902 24.2402 75.5098 24.248 75.5293 24.2559C75.6855 24.3184 75.8359 24.3984 75.9805 24.4961C76.0938 24.5586 76.1953 24.6367 76.2852 24.7305C76.2891 24.7344 76.291 24.7363 76.291 24.7363C76.291 24.7363 76.291 24.7383 76.291 24.7422C76.3613 24.8125 76.4238 24.8926 76.4785 24.9824C76.5215 25.0566 76.5605 25.1367 76.5957 25.2227C76.6113 25.2617 76.627 25.3027 76.6426 25.3457C76.666 25.4277 76.6836 25.5117 76.6953 25.5977C76.7031 25.6328 76.709 25.6699 76.7129 25.709V26.0195V26.6875V32.0957C76.7129 32.0957 76.7129 32.0977 76.7129 32.1016C76.7129 32.1172 76.7148 32.1348 76.7188 32.1543ZM86.4746 32.166C86.541 32.6934 86.75 33.1289 87.1016 33.4727C87.457 33.8164 87.877 33.9883 88.3613 33.9883H86.4746C86.3418 33.9883 86.2148 33.9707 86.0938 33.9355C85.8555 33.8691 85.6484 33.748 85.4727 33.5723C85.1992 33.2988 85.0625 32.9668 85.0625 32.5762V32.5527C84.5078 33.2988 83.7676 33.7559 82.8418 33.9238C82.1426 34.0293 81.4766 33.9434 80.8438 33.666C80.2109 33.3887 79.7031 32.9492 79.3203 32.3477C78.9648 31.75 78.8066 31.1152 78.8457 30.4434C78.8887 29.7676 79.1211 29.1543 79.543 28.6035C79.957 28.0918 80.4668 27.7285 81.0723 27.5137C81.6816 27.2988 82.3086 27.252 82.9531 27.373C83.8438 27.5684 84.5469 28.0215 85.0625 28.7324V26.1895V26.166V26.0605V25.832V25.7324C85.0078 25.209 84.8301 24.7754 84.5293 24.4316C84.2285 24.0879 83.8672 23.916 83.4453 23.916C83.0703 23.916 82.7402 24.0566 82.4551 24.3379C82.1699 24.6152 81.9766 24.9746 81.875 25.416C81.8594 25.5059 81.8477 25.6113 81.8398 25.7324C81.8398 25.7402 81.8398 25.748 81.8398 25.7559L81.834 25.832C81.8301 25.8516 81.8262 25.8691 81.8223 25.8848C81.8223 25.8887 81.8223 25.8906 81.8223 25.8906C81.791 25.9844 81.7383 26.0645 81.6641 26.1309C81.5703 26.209 81.4609 26.248 81.3359 26.248C81.1367 26.248 80.9844 26.1543 80.8789 25.9668C80.8438 25.9004 80.8262 25.8262 80.8262 25.7441C80.8262 25.7363 80.8262 25.7285 80.8262 25.7207C80.8262 25.6543 80.8457 25.5781 80.8848 25.4922C80.9238 25.4023 80.9707 25.3145 81.0254 25.2285C81.0801 25.1426 81.127 25.0703 81.166 25.0117C81.209 24.9531 81.2344 24.9199 81.2422 24.9121C81.3672 24.7324 81.5098 24.5703 81.6699 24.4258C82.041 24.082 82.4785 23.8535 82.9824 23.7402C82.9941 23.7363 83.0039 23.7344 83.0117 23.7344C83.1328 23.7109 83.252 23.6953 83.3691 23.6875C83.6113 23.6719 83.8496 23.6875 84.084 23.7344C84.791 23.8828 85.373 24.248 85.8301 24.8301C85.9082 24.9355 85.9805 25.0469 86.0469 25.1641C86.2305 25.4844 86.3535 25.8262 86.416 26.1895C86.4551 26.416 86.4707 26.6426 86.4629 26.8691C86.4707 26.9512 86.4746 27.0312 86.4746 27.1094V32.166ZM83.2637 33.584C84.0605 33.3105 84.6602 32.8203 85.0625 32.1133V29.3887V29.248V29.1543C84.7812 28.6699 84.4023 28.2852 83.9258 28C83.4492 27.7109 82.9258 27.5566 82.3555 27.5371C81.9258 27.7402 81.5742 28.123 81.3008 28.6855C81.0312 29.248 80.8965 29.8984 80.8965 30.6367C80.8965 31.375 81.0312 32.0254 81.3008 32.5879C81.5703 33.1504 81.9199 33.5332 82.3496 33.7363C82.6582 33.7285 82.9629 33.6777 83.2637 33.584Z" fill="#110200"/>
</svg>
