<svg width="40" height="40" viewBox="0 0 40 40" fill="none" xmlns="http://www.w3.org/2000/svg">
<g clip-path="url(#clip0_108_354)">
<path fill-rule="evenodd" clip-rule="evenodd" d="M0 0H40V40H0V0Z" fill="#251605"/>
<path fill-rule="evenodd" clip-rule="evenodd" d="M2.10587 22.7807L3.37628 17.0615H5.64423L5.74778 20.2564L7.27447 17.0615H9.54781L8.27221 22.7807H6.62557L7.30705 19.7057L5.77517 22.7807H4.59191L4.53194 19.7057L3.76869 22.7807H2.10587ZM9.74433 17.9937H11.2762L11.4833 17.0615H9.94583L9.74433 17.9937ZM10.2131 22.7863L8.67023 22.7807L9.61339 18.5444H11.1563L10.2131 22.7863ZM16.0578 18.5444H17.4372L17.3172 19.0678C17.5081 18.8333 17.737 18.6862 18.0261 18.588C18.2581 18.5107 18.5012 18.472 18.7458 18.4735L18.3913 19.8528C18.3042 19.8528 17.2357 19.6455 16.903 21.2758L16.5596 22.7859H15.1036L16.0578 18.5444Z" fill="#F5F5F5"/>
<path fill-rule="evenodd" clip-rule="evenodd" d="M15.251 21.2158C15.251 21.2484 14.7658 22.9494 12.634 22.906C9.77692 22.8461 10.5186 18.2664 13.7625 18.4299C15.6052 18.5225 15.5127 20.0545 15.4963 20.1201H13.9042C13.926 20.0602 13.9806 19.4276 13.4734 19.4386C12.5302 19.466 11.8596 21.8047 12.9009 21.8267C13.3806 21.8431 13.6044 21.287 13.6479 21.2162H15.251V21.2158ZM28.9303 22.9224C25.8281 22.7915 26.7603 18.2226 29.9444 18.3753C32.9376 18.5225 32.0868 23.0478 28.9303 22.9224ZM29.8406 19.3729C28.8103 19.1658 28.0415 21.641 29.0232 21.8427C30.1133 22.0718 30.8442 19.5748 29.8406 19.3729Z" fill="#F5F5F5"/>
<path fill-rule="evenodd" clip-rule="evenodd" d="M34.7424 17.9172C34.3167 17.9172 34.2354 18.0807 34.1644 18.4023L34.1368 18.5441H35.0366L35.2603 17.5192H36.6667L36.4486 18.5441H37.1736L36.9613 19.52H36.2359L35.8378 21.3792C35.8216 21.4827 35.7835 21.5753 35.8216 21.6898C35.8816 21.8587 36.4867 21.7882 36.4867 21.7882L36.2525 22.7587C36.2525 22.7587 35.0202 22.9005 34.6056 22.6114C34.4203 22.4861 34.2186 22.2244 34.3441 21.6628L34.8183 19.5256L33.9733 19.5202L33.2592 22.7805H31.7433L32.4522 19.5202H31.6724L31.8905 18.5443H32.6483C32.7844 17.9991 32.9044 17.6283 33.2424 17.3448C33.706 16.9686 34.9111 17.1157 34.9111 17.1157L34.7424 17.9172ZM21.1339 21.3302L24.0123 21.3248C24.0123 21.3248 23.767 21.9627 24.6722 21.9683C25.2991 21.9683 25.5444 21.254 24.6994 21.1069C24.3124 21.0359 22.8131 20.785 22.9822 19.6292C23.1241 18.6806 24.1107 18.348 25.1904 18.3644C27.3986 18.3916 26.9844 19.6894 27.0113 19.7765H25.5392C25.5392 19.7765 25.6973 19.2314 25.0323 19.2314C24.4271 19.2314 24.2796 19.7765 24.9775 19.9236C25.8283 20.1092 26.8042 20.1527 26.8584 21.2486C26.8746 21.5541 26.6951 22.9822 24.4703 22.9389C22.4312 22.8953 22.2897 21.9357 22.3441 21.4887C21.9733 22.2684 21.0463 22.9608 19.8089 22.9173C16.7067 22.8191 17.6499 18.2228 20.8284 18.3812C22.2733 18.4519 22.8241 19.5478 22.6493 20.6273C22.6222 20.8182 22.606 20.8454 22.5512 20.8618L21.1339 21.3302ZM20.7138 19.3673C19.6941 19.1656 18.9311 21.6298 19.9068 21.8372C20.9867 22.0609 21.7118 19.5692 20.7138 19.3673ZM38.0244 18.5387C38.7605 18.5387 38.7605 19.6346 38.0244 19.6346C37.2884 19.6346 37.2884 18.5387 38.0244 18.5387ZM38.0244 18.6368C37.4083 18.6368 37.4083 19.531 38.0244 19.531C38.6457 19.531 38.6457 18.6368 38.0244 18.6368ZM38.1226 19.1492L38.2315 19.3673H38.1006L38.0134 19.1492H37.9369L37.9045 19.3837H37.7897L37.8825 18.8004H38.1496C38.1496 18.8004 38.2967 18.8385 38.2857 18.9803C38.2697 19.1492 38.1336 19.1492 38.1226 19.1492ZM38.095 18.8767H37.9865L37.9589 19.0676H38.0678C38.0678 19.0676 38.1768 19.084 38.1877 18.9749C38.1877 18.8767 38.095 18.8767 38.095 18.8767Z" fill="#F5F5F5"/>
</g>
<defs>
<clipPath id="clip0_108_354">
<rect width="40" height="40" fill="white"/>
</clipPath>
</defs>
</svg>
