<svg width="39" height="16" viewBox="0 0 39 16" fill="none" xmlns="http://www.w3.org/2000/svg">
<path d="M7.08949 2.05521C6.63475 2.59366 5.90717 3.01836 5.17959 2.95768C5.08864 2.22964 5.44485 1.45609 5.8617 0.978311C6.31643 0.424693 7.11223 0.0303352 7.75644 0C7.83223 0.758381 7.53665 1.50159 7.08949 2.05521ZM7.74886 3.10178C6.69538 3.04111 5.79348 3.7009 5.29327 3.7009C4.78548 3.7009 4.02 3.13211 3.18631 3.14728C2.10251 3.16245 1.09451 3.77674 0.541242 4.75505C-0.595607 6.71167 0.245661 9.60868 1.34462 11.2013C1.88272 11.99 2.52694 12.8546 3.37579 12.8242C4.17916 12.7939 4.49748 12.3009 5.46759 12.3009C6.44528 12.3009 6.7257 12.8242 7.57455 12.8091C8.45371 12.7939 9.00698 12.0203 9.54509 11.2316C10.159 10.3367 10.4091 9.46459 10.4242 9.41909C10.4091 9.40392 8.72655 8.7593 8.7114 6.81784C8.69624 5.19491 10.0377 4.42136 10.0984 4.37586C9.34045 3.25345 8.15813 3.13211 7.74886 3.10178ZM13.8348 0.902473V12.7256H15.6689V8.68346H18.2079C20.527 8.68346 22.1565 7.09086 22.1565 4.78538C22.1565 2.4799 20.5574 0.902473 18.2685 0.902473H13.8348ZM15.6689 2.44957H17.7835C19.375 2.44957 20.2845 3.29896 20.2845 4.79297C20.2845 6.28698 19.375 7.14395 17.7759 7.14395H15.6689V2.44957ZM25.5064 12.8166C26.6585 12.8166 27.7271 12.2327 28.2121 11.3075H28.25V12.7256H29.9477V6.84059C29.9477 5.13424 28.5835 4.03459 26.4841 4.03459C24.5363 4.03459 23.0963 5.14941 23.0433 6.68133H24.6955C24.8319 5.95329 25.5064 5.47551 26.4311 5.47551C27.5528 5.47551 28.1818 5.99879 28.1818 6.96194V7.61414L25.893 7.75065C23.7633 7.87958 22.6113 8.75171 22.6113 10.2685C22.6113 11.8004 23.8012 12.8166 25.5064 12.8166ZM25.9991 11.4136C25.0214 11.4136 24.3999 10.9434 24.3999 10.223C24.3999 9.47976 24.9987 9.04748 26.1431 8.97923L28.1818 8.8503V9.51768C28.1818 10.6249 27.242 11.4136 25.9991 11.4136ZM32.2139 15.9412C34.0025 15.9412 34.8438 15.2586 35.5789 13.1882L38.8 4.14834H36.9356L34.7756 11.133H34.7377L32.5776 4.14834H30.6602L33.7675 12.756L33.6008 13.2792C33.3204 14.1666 32.8656 14.5078 32.0547 14.5078C31.9107 14.5078 31.6303 14.4927 31.5166 14.4775V15.8957C31.6227 15.926 32.0774 15.9412 32.2139 15.9412Z" fill="#F5F5F5"/>
</svg>
