<svg width="47" height="16" viewBox="0 0 47 16" fill="none" xmlns="http://www.w3.org/2000/svg">
<path d="M2.65167 11.427C2.84644 11.9439 3.1161 12.3858 3.46068 12.7528C3.80527 13.1199 4.2135 13.4008 4.68538 13.5956C5.15731 13.7903 5.67041 13.8877 6.22473 13.8877C6.76409 13.8877 7.26968 13.7865 7.74161 13.5843C8.21354 13.382 8.6255 13.0974 8.97755 12.7304C9.32959 12.3633 9.60302 11.9251 9.79779 11.4158C9.99256 10.9064 10.0899 10.3371 10.0899 9.70789V0H12.4495V15.7303H10.1124V14.2697C9.58806 14.8239 8.97004 15.2509 8.25844 15.5506C7.54679 15.8502 6.77905 16 5.95508 16C5.11609 16 4.33334 15.8539 3.60672 15.5618C2.88016 15.2697 2.2509 14.854 1.7191 14.3146C1.18731 13.7753 0.767786 13.1274 0.460692 12.3708C0.153547 11.6143 0 10.7716 0 9.84269V0H2.35955V9.70789C2.35955 10.3371 2.45691 10.9101 2.65167 11.427Z" fill="#F5F5F5"/>
<path d="M16.5167 0V5.73033C17.041 5.20599 17.6478 4.7903 18.3369 4.48315C19.0261 4.17601 19.7751 4.02246 20.5841 4.02246C21.4231 4.02246 22.2095 4.17974 22.9436 4.49434C23.6777 4.80895 24.3144 5.23592 24.8537 5.77528C25.3931 6.31463 25.8201 6.9513 26.1347 7.68537C26.4493 8.4195 26.6066 9.19852 26.6066 10.0225C26.6066 10.8464 26.4493 11.6217 26.1347 12.3483C25.8201 13.0749 25.3931 13.7079 24.8537 14.2471C24.3144 14.7865 23.6777 15.2135 22.9436 15.5281C22.2095 15.8427 21.423 15.9999 20.5841 15.9999C19.7751 15.9999 19.0223 15.8464 18.3257 15.5393C17.6291 15.2322 17.0185 14.8164 16.4942 14.2921V15.7303H14.247V0H16.5167ZM16.7751 11.573C16.9773 12.0525 17.2583 12.4719 17.6178 12.8315C17.9774 13.191 18.3968 13.4757 18.8762 13.6855C19.3557 13.8952 19.8725 14.0001 20.4268 14.0001C20.9662 14.0001 21.4755 13.8952 21.9549 13.6855C22.4343 13.4757 22.85 13.1911 23.2021 12.8315C23.5542 12.472 23.835 12.0525 24.0448 11.573C24.2545 11.0936 24.3594 10.5768 24.3594 10.0225C24.3594 9.46817 24.2545 8.94756 24.0448 8.46067C23.835 7.97377 23.5542 7.55057 23.2021 7.19102C22.85 6.83151 22.4343 6.55057 21.9549 6.34835C21.4754 6.14612 20.9661 6.04493 20.4268 6.04493C19.8875 6.04493 19.3781 6.14607 18.8988 6.34835C18.4194 6.55062 17.9999 6.83151 17.6403 7.19102C17.2808 7.55057 16.9961 7.97377 16.7864 8.46067C16.5767 8.94756 16.4718 9.46817 16.4718 10.0225C16.4717 10.5768 16.5729 11.0936 16.7751 11.573Z" fill="#F5F5F5"/>
<path d="M27.8872 7.70778C28.1868 6.98868 28.5989 6.35574 29.1232 5.80893C29.6474 5.26211 30.2692 4.8314 30.9883 4.5168C31.7075 4.2022 32.4865 4.04492 33.3254 4.04492C34.1494 4.04492 34.9135 4.19474 35.6176 4.49433C36.3217 4.79396 36.9284 5.2097 37.4378 5.74155C37.9472 6.27335 38.3442 6.9026 38.6288 7.62917C38.9134 8.35578 39.0558 9.14604 39.0558 10V10.7416H29.7299C29.8049 11.206 29.9547 11.6367 30.1794 12.0337C30.4041 12.4307 30.685 12.7752 31.0221 13.0674C31.3591 13.3595 31.7412 13.588 32.1681 13.7528C32.5951 13.9175 33.0483 14 33.5277 14C34.891 14 35.9922 13.4382 36.8311 12.3145L38.4715 13.528C37.9023 14.2921 37.1982 14.8913 36.3592 15.3258C35.5202 15.7602 34.5764 15.9775 33.5277 15.9775C32.6738 15.9775 31.8761 15.8276 31.1345 15.528C30.3929 15.2284 29.7487 14.8089 29.2019 14.2695C28.6551 13.7302 28.2244 13.0973 27.9098 12.3707C27.5952 11.6441 27.4379 10.8538 27.4379 9.9999C27.4378 9.19094 27.5876 8.42689 27.8872 7.70778ZM31.0445 6.82011C30.4078 7.35196 29.9846 8.05983 29.7749 8.94372H36.7637C36.5689 8.05983 36.1532 7.35196 35.5165 6.82011C34.8797 6.28831 34.1344 6.02239 33.2805 6.02239C32.4266 6.02239 31.6813 6.28831 31.0445 6.82011Z" fill="#F5F5F5"/>
<path d="M43.3028 7.07859C42.8234 7.60293 42.5837 8.31453 42.5837 9.21343V15.7303H40.314V4.26964H42.5612V5.68538C42.8459 5.22096 43.2167 4.85389 43.6736 4.58424C44.1305 4.31454 44.6736 4.17969 45.3028 4.17969H46.0893V6.29206H45.1455C44.3965 6.29211 43.7822 6.55425 43.3028 7.07859Z" fill="#F5F5F5"/>
</svg>
